# xmcd
# Copyright (C) 1995-1998 Ti Kan
#
# Track frame offsets:
#       150
#       10689
#       25988
#       36984
#       52511
#       69143
#
# Disc length: 1273 seconds
#
# Revision: 0
# Processed by: cddbd v1.5.1PL2 Copyright (c) Steve Scherf et al.
# Submitted via: CD-Transfer v1.0
#
DISCID=3904f706
DTITLE=Matschedonia - Niemand Will Ins Spieln Hearn
DYEAR=05
DGENRE=
TTITLE0=Flippa Joe
TTITLE1=Baby Ziach Di Aus
TTITLE2=Blues A Bebbe
TTITLE3=Olt-Herrn-Runde
TTITLE4=Jack Do Rippa
TTITLE5=Sperma Song
EXTD=
EXTT0=
EXTT1=
EXTT2=
EXTT3=
EXTT4=
EXTT5=
PLAYORDER=
